<?xml version="1.0" encoding="UTF-8"?><svg id="a" xmlns="http://www.w3.org/2000/svg" xmlns:xlink="http://www.w3.org/1999/xlink" viewBox="0 90 958 463"><defs><clipPath id="b"><rect width="958.06" height="563" style="fill:none;"/></clipPath></defs><g style="clip-path:url(#b);"><g><path d="M142.34,34.77c-10.28,9.82-19.75,22.24-28.09,36.64l.6-.92,36.37,76.1c3.1-21.48,6.97-41.66,10.92-59.55l-20.42-51.43,.63-.85Z" style="fill:#f0623b;"/><path d="M182.46,11.76c-.68,.15-1.36,.3-2.05,.48-13.16,3.35-25.77,10.95-37.37,21.86l19.79,49.82c8.91-39.66,18.04-67.43,19.63-72.15Z" style="fill:#f0623b;"/><path d="M145.16,264.64c-.27-4.54-.48-9.14-.61-13.8l-.23,.51-63.22-79.01c-1.04,7.6-1.81,15.28-2.3,23.05l.46-1.14,65.9,70.39Z" style="fill:#f0623b;"/><path d="M145.08,208.3c.95-18.74,2.84-38.18,5.65-58.33l-37.06-77.55c-10,17.81-17.86,36.75-23.41,56.41l.53-1.05,54.28,80.52Z" style="fill:#f0623b;"/><path d="M266.67,78.73l-114.36,70.44c-2.03,14.35-3.77,29.89-4.93,46.12l129.02-75.37c-1.85-14.43-5.16-28.64-9.87-42.41l.14,1.22Z" style="fill:#f0623b;"/><path d="M276.57,121.13l.13,1.23-129.49,75.65c-.26,3.92-.49,7.87-.67,11.86l131.46-74.33,.12,1.23c-.37-5.34-.88-10.55-1.54-15.63Z" style="fill:#f0623b;"/><path d="M144.49,248.13c-.28-11.77-.14-23.9,.43-36.4l-55.02-81.61c-3.78,13.38-6.65,26.99-8.6,40.76l.49-1.1,62.69,78.35Z" style="fill:#f0623b;"/><path d="M83.16,250.25c17.7,67.96,77.52,122.36,92.58,135.21-10.77-20.13-18.82-43.34-24.06-69.37l-68.52-65.84Z" style="fill:#f0623b;"/><path d="M147.11,269.12c1.03,14.82,2.95,29.57,5.75,44.17l110.48-80.36,.21,1.33c4.54-12.56,8.23-25.41,11.04-38.46l-127.48,73.32Z" style="fill:#f0623b;"/><path d="M237.44,28.83c-15.31-14.82-33.9-21.41-54.12-17.26l.62,.53c-.14,.41-10.04,29.25-19.69,72.15L237.44,28.83Z" style="fill:#f0623b;"/><path d="M78.71,196.92c-.28,4.82-.45,9.65-.51,14.51-.08,12.36,1.4,24.69,4.42,36.68l.42-1.13,67.87,65.21c-2.46-13.17-4.21-26.47-5.22-39.84-.11-1.39-.2-2.81-.29-4.21l-66.69-71.23Z" style="fill:#f0623b;"/><path d="M266.15,76.44c-6.96-19.53-16.51-35.52-27.94-46.87l.19,1.18-74.87,56.7c-3.91,17.68-7.74,37.62-10.82,58.86l113.43-69.87Z" style="fill:#f0623b;"/><path d="M179.4,388.09c3.39-4.59,56.4-76.95,83.58-152.26l-109.67,79.77c5.21,25.72,13.53,50.44,26.09,72.49Z" style="fill:#f0623b;"/><path d="M275.2,192.84c2.18-10.71,3.38-21.59,3.58-32.52,.08-7.64-.12-15.08-.59-22.31l-131.79,74.51c-.8,17.99-.62,36.01,.52,53.98l.06,.07,128.21-73.74Z" style="fill:#f0623b;"/><path d="M-38.63,320.82c-1.65,14.12-1.03,29.73,1.74,46.14l-.13-1.09,76.55,35.42c-11.31-18.53-21.2-36.53-29.57-52.83l-48.54-26.59-.06-1.05Z" style="fill:#f0623b;"/><path d="M-22.4,277.5c-.43,.55-.86,1.1-1.27,1.67-8,10.97-12.87,24.87-14.84,40.67l47.02,25.75c-18.43-36.23-29.11-63.44-30.9-68.09Z" style="fill:#f0623b;"/><path d="M110.16,496.05c-3.1-3.32-6.2-6.73-9.27-10.23l.15,.54L1.95,465.83c4.04,6.52,8.35,12.92,12.93,19.22l-.37-1.17,95.65,12.18Z" style="fill:#f0623b;"/><path d="M74.17,452.72c-11.22-15.04-22.17-31.22-32.85-48.53l-78.01-36.09c3.66,20.1,9.68,39.7,17.95,58.38l-.26-1.15,93.16,27.39Z" style="fill:#f0623b;"/><path d="M85.18,275.37l-43.15,127.19c7.6,12.35,16.16,25.43,25.62,38.67l51.29-140.34c-10.63-9.93-22.24-18.77-34.65-26.37l.89,.85Z" style="fill:#f0623b;"/><path d="M119.84,301.72l.88,.86-51.48,140.86c2.3,3.19,4.65,6.37,7.05,9.56l53.84-141.1,.87,.87c-3.69-3.87-7.41-7.56-11.16-11.06Z" style="fill:#f0623b;"/><path d="M99.12,483.77c-7.72-8.89-15.35-18.32-22.89-28.31l-94.42-27.76c5.62,12.71,12.09,25.03,19.37,36.87l-.32-1.16,98.26,20.36Z" style="fill:#f0623b;"/><path d="M53.23,524.53c56.98,41.05,137.75,44.8,157.54,45.08-21.14-8.63-42.14-21.38-62.78-38.08l-94.77-7.01Z" style="fill:#f0623b;"/><path d="M114.52,498.27c10.25,10.76,21.14,20.89,32.6,30.35l33.84-132.36,1.01,.89c-4.52-12.57-9.87-24.82-16.02-36.67l-51.42,137.78Z" style="fill:#f0623b;"/><path d="M30.83,255.58c-21.24-1.65-39.77,5.13-52.69,21.22h.82c.15,.42,10.93,28.94,30.86,68.14l21.02-89.37Z" style="fill:#f0623b;"/><path d="M15.79,486.29c2.85,3.89,5.81,7.72,8.87,11.5,7.82,9.57,16.83,18.12,26.8,25.43l-.4-1.14,93.87,6.94c-10.3-8.58-20.12-17.71-29.43-27.35-.97-1-1.94-2.04-2.91-3.06l-96.79-12.32Z" style="fill:#f0623b;"/><path d="M83.31,273.94c-17.82-10.6-35.37-16.82-51.41-18.28l.9,.79-21.5,91.42c8.27,16.11,18.03,33.91,29.21,52.23l42.8-126.16Z" style="fill:#f0623b;"/><path d="M215.27,569.3c-.32-5.7-5.64-95.24-32.74-170.58l-33.59,131.39c20.41,16.49,42.59,30.22,66.33,39.19Z" style="fill:#f0623b;"/><path d="M164.53,357.82c-5.15-9.64-11.17-18.79-17.98-27.33-4.81-5.93-9.71-11.53-14.68-16.8l-53.97,141.45c10.86,14.37,22.49,28.13,34.83,41.25h.09s51.71-138.56,51.71-138.56Z" style="fill:#f0623b;"/><path d="M288.29,238.24c-12.81,6.16-25.66,15.05-38.04,26.17l.85-.69,11.06,83.62c9.59-19.47,19.5-37.47,28.79-53.26l-3.53-55.23,.86-.61Z" style="fill:#f0623b;"/><path d="M333.56,228.76c-.69-.07-1.39-.13-2.09-.18-13.55-.88-27.89,2.45-42.3,9.23l3.42,53.5c20.73-34.96,38-58.55,40.97-62.55Z" style="fill:#f0623b;"/><path d="M219.93,457.72c1.14-4.4,2.37-8.84,3.68-13.31l-.38,.42-35.7-94.68c-3.34,6.9-6.45,13.97-9.31,21.21l.79-.94,40.92,87.31Z" style="fill:#f0623b;"/><path d="M237.26,404.12c6.7-17.53,14.5-35.43,23.41-53.73l-11.27-85.21c-15.02,13.85-28.35,29.43-39.7,46.42l.83-.83,26.74,93.35Z" style="fill:#f0623b;"/><path d="M392.95,318.48l-130.53,31.64c-6.36,13.03-12.83,27.26-18.94,42.34l146-31.8c2.7-14.3,3.95-28.84,3.72-43.39l-.25,1.2Z" style="fill:#f0623b;"/><path d="M389.25,361.86l-.26,1.2-146.54,31.92c-1.46,3.65-2.9,7.34-4.31,11.07l148-30.06-.27,1.2c1.3-5.19,2.42-10.3,3.37-15.34Z" style="fill:#f0623b;"/><path d="M224.39,441.82c3.37-11.28,7.26-22.78,11.66-34.49l-27.1-94.62c-7.73,11.55-14.67,23.62-20.77,36.1l.81-.89,35.4,93.89Z" style="fill:#f0623b;"/><path d="M165.4,424.88c-4.17,70.1,35.9,140.33,46.26,157.2-4.03-22.47-4.5-47.03-1.44-73.41l-44.81-83.79Z" style="fill:#f0623b;"/><path d="M220.39,462.59c-3.6,14.42-6.33,29.04-8.18,43.78l129.91-42.27-.22,1.33c8.2-10.54,15.68-21.62,22.39-33.16l-143.9,30.33Z" style="fill:#f0623b;"/><path d="M380.57,261.99c-9.98-18.82-25.62-30.84-46.13-33.14l.42,.7c-.26,.35-18.59,24.72-41.03,62.54l86.73-30.09Z" style="fill:#f0623b;"/><path d="M177.65,372.78c-1.76,4.49-3.41,9.04-4.97,13.64-3.9,11.73-6.3,23.91-7.13,36.25l.75-.94,44.39,83c1.73-13.29,4.18-26.48,7.35-39.5,.33-1.36,.68-2.73,1.02-4.1l-41.41-88.35Z" style="fill:#f0623b;"/><path d="M393.16,316.14c-.58-20.73-4.72-38.88-12.08-53.21l-.18,1.18-88.72,30.78c-9.18,15.61-18.98,33.38-28.48,52.63l129.47-31.39Z" style="fill:#f0623b;"/><path d="M214.32,585.72c4.65-3.32,77.43-55.75,126.56-118.97l-128.96,41.96c-3,26.07-2.73,52.15,2.4,77.01Z" style="fill:#f0623b;"/><path d="M365.78,429.64c5.38-9.51,9.89-19.49,13.46-29.82,2.43-7.24,4.55-14.37,6.33-21.4l-148.36,30.13c-6.32,16.86-11.73,34.06-16.2,51.5l.04,.08,144.73-30.5Z" style="fill:#f0623b;"/><circle cx="411.56" cy="187.82" r="60" style="fill:#564fd9;"/><circle cx="346.56" cy="108.82" r="60" style="fill:#564fd9;"/><path d="M270.42,102.39c-.94,3.15-1.62,6.37-2.03,9.63-4.13,32.88,19.17,62.89,52.05,67.02,32.88,4.13,62.89-19.17,67.02-52.05-1.92,6.46-4.93,12.56-8.88,18.02-19.41,26.86-56.92,32.89-83.78,13.48-17.77-12.84-27.13-34.36-24.39-56.11Z" style="fill:#564fd9;"/><circle cx="427.06" cy="211.32" r="49" style="fill:#7a74e0;"/><path d="M389.06,233.32c2,22-16,44-16,44-10,6-31,34-31,34l6-5c11-8,32,2,32,2l31,34,32,25h29s-6-25-6-25l-14-19s-12-19-12-21-13-8-13-8c-3-13,17-43,17-43l-55-18Z" style="fill:#7a74e0;"/><path d="M429.06,293.32l5,24,26,42s16,72,20,78,27,28,29,26-1-47-1-47c0,0-36-70-44-91-8-21-28-32-28-32h-7Z" style="fill:#7a74e0;"/><path d="M506.06,458.32c4,29,76-72,76-72,0,0,33-30,32-57s-45,23-48,38c-3,15-58,49-58,49l-9,3,7,39Z" style="fill:#7a74e0;"/><path d="M375.06,304.32c-10-6-27,2-27,2-18-1-56,125-60,142-4,17-89,143-89,143,0,0-81,10-81,22s97,0,97,0c0,0,105-123,109-147,4-24,44-78,44-78,39-10,40-38,40-38,0,0-23-40-33-46Z" style="fill:#7a74e0;"/><path d="M509.06,504.32s47-14,66-24,61-55,63-57,0,15,0,15c3,36,106,121,106,121l-4,32c-1,8,14,7,26,4,12-3,29-6,29-6,0,0,26,8,54,6s16-12,16-12c-23,9-69-38-69-38,0,0-130-164-141-178-11-14-30-10-45-4s-85,100-85,100l-16,41Z" style="fill:#a0616a;"/><path d="M509.06,504.32s47-14,66-24,61-55,63-57,0,15,0,15c3,36,106,121,106,121l-4,32c-1,8,14,7,26,4,12-3,29-6,29-6,0,0,26,8,54,6s16-12,16-12c-23,9-69-38-69-38,0,0-130-164-141-178-11-14-30-10-45-4s-85,100-85,100l-16,41Z" style="fill:#564fd9; stroke:#564fd9;"/><path d="M503.06,591.32s66-16,94-45,73-54,73-54c20,39,152,75,163,77,11,2,17,19,19,32,2,13,32,3,41-5s62-13,62-13c43-17,3-20,3-20,0,0-62-19-98-27-36-8-143-91-165-109s-65-2-77,6c-12,8-104,43-104,43l-11,115Z" style="fill:#7a74e0;"/><path d="M434.06,450.32l-33,17s-16,16-19,23,12,58,18,87,24,25,38,20c14-5,61,6,71-1s6-29,24-77c18-48-1-72-4.58-67.67s-47.42-7.33-47.42-7.33l-47,6Z" style="fill:#f0623b;"/><path d="M328.06,326.32l1.19-2.78c3.14-7.33,8.27-13.64,14.81-18.22h0l3.36-1.68c11.93-6.07,26.19-5.31,37.4,2.01,10.72,7.15,19.19,18.42,25.24,26.67,11,15,37,28,53,22s-24-41-25-46c-1-5-11.5-14.5-11.5-14.5l8-1,44.54,65.58c26.04,14.08,15.96,49.92,4.96,58.92-11,9,3.57,28.56,3.57,28.56,0,0-69.57,12.44-86.57,30.44s-18,8-18,8c0-25-30-79-30-79l15-19s20-7,30-19c10-12-2-33-15-51-10.72-14.85-25.53-10.64-30.39-8.72-1.06,.41-2.13,.76-3.23,1.06-12.92,3.66-19.89,23.16-19.89,23.16l-1.5-5.5Z" style="fill:#f5764e;"/><circle cx="395.56" cy="197.82" r="44" style="fill:#564fd9;"/><ellipse cx="432.56" cy="181.32" rx="39" ry="30.5" style="fill:#564fd9;"/><ellipse cx="418.06" cy="229.32" rx="6.5" ry="11.5" style="fill:#a0616a;"/><path d="M412.42,122.82h12.28c2.96,0,5.36,2.4,5.36,5.36v79.64h-23v-79.64c0-2.96,2.4-5.36,5.36-5.36Z" style="fill:#fff;"/><circle cx="418.56" cy="223.82" r="25" style="fill:#fff;"/><circle cx="418.56" cy="223.82" r="11" style="fill:#f2f2f2;"/><circle cx="418.56" cy="223.82" r="3" style="fill:#ff6584;"/><path d="M412.42,122.82h12.28c2.96,0,5.36,2.4,5.36,5.36v3.64h-23v-3.64c0-2.96,2.4-5.36,5.36-5.36Z" style="fill:#fff; isolation:isolate; opacity:.1;"/><path d="M674.75,326.05c3.97,4.59,3.46,11.53-1.13,15.49l-56.83,49.1c-4.36,3.76-10.88,3.53-14.95-.54l-55.01-55.01c-4.29-4.29-4.29-11.24,0-15.53l52.97-52.97s0,0,0,0c4.29-4.29,11.24-4.29,15.53,0l58.88,58.88c.19,.19,.37,.38,.54,.59Z" style="fill:#64beb5; stroke:#64beb5;"/><polygon points="613.06 375.32 563.56 325.82 606.06 283.32 657.56 334.82 613.06 375.32" style="fill:#579c95; stroke:#579c95;"/></g></g></svg>